<mxfile host="app.diagrams.net" modified="2020-11-18T01:19:12.643Z" agent="5.0 (Macintosh; Intel Mac OS X 10_13_6) AppleWebKit/537.36 (KHTML, like Gecko) Chrome/86.0.4240.193 Safari/537.36" etag="vXwXLqXxLfW1efVvhil5" version="13.9.9" type="github">
  <diagram id="T3l0pvws1jYalMxPNNTW" name="Page-1">
    <mxGraphModel dx="888" dy="574" grid="1" gridSize="10" guides="1" tooltips="1" connect="1" arrows="1" fold="1" page="1" pageScale="1" pageWidth="827" pageHeight="1169" math="0" shadow="0">
      <root>
        <mxCell id="0" />
        <mxCell id="1" parent="0" />
        <mxCell id="5BXS_DCnHMaqln5NutIT-1" value="" style="rounded=1;whiteSpace=wrap;html=1;strokeWidth=2;fillWeight=4;hachureGap=8;hachureAngle=45;sketch=1;resizable=1;rotatable=1;" vertex="1" parent="1">
          <mxGeometry x="350" y="270" width="120" height="60" as="geometry" />
        </mxCell>
        <mxCell id="5BXS_DCnHMaqln5NutIT-2" value="" style="shape=ext;double=1;rounded=0;whiteSpace=wrap;html=1;strokeColor=#000000;fillColor=#ffffff;comic=1;" vertex="1" parent="1">
          <mxGeometry x="80" y="360" width="120" height="80" as="geometry" />
        </mxCell>
      </root>
    </mxGraphModel>
  </diagram>
</mxfile>
